<svg height="512" viewBox="0 0 512 512" width="512" xmlns="http://www.w3.org/2000/svg" xmlns:xlink="http://www.w3.org/1999/xlink"><defs><linearGradient id="a" x1="50%" x2="50%" y1="0%" y2="97.50279%"><stop offset="0" stop-color="#53d057"/><stop offset="1" stop-color="#5686db"/></linearGradient><path id="b" d="m34.7799551 181.121499h69.5603659l34.780223 60.385453h-69.5592867l-34.7813822-60.385453-34.7798751-60.37453 34.7802229-60.3738331 34.7802229 60.3738331 34.7799552-60.3731359h69.560981l69.560044-.0004648 34.780357 60.3736007h-69.560312l-34.780089-60.3731359h69.55983l-34.780223-60.3738331h-69.560445l-13.912089 24.1495332 13.911625-24.1495332h-69.5592864l-34.7813823 60.3738331 34.7809675 60.3732519-6.9559777 12.074883 6.9560447-12.074767 34.7802232 60.373833h-69.5599106zm122.8061089 28.326204 16.315862-28.326669 34.779063 60.385453h-69.55983l-34.78049-60.384988h69.560445z"/><linearGradient id="c" x1="50%" x2="50%" y1="0%" y2="100%"><stop offset="0" stop-color="#33b64d"/><stop offset="1" stop-color="#30a7d8"/></linearGradient><linearGradient id="d" x1="50%" x2="50%" y1="0%" y2="100%"><stop offset="0" stop-color="#33b36c"/><stop offset="1" stop-color="#208b5d"/></linearGradient><mask id="e" fill="#fff"><use fill="none" xlink:href="#b"/></mask></defs><g fill="none" fill-rule="evenodd"><circle cx="256" cy="256" fill="#fff" r="256"/><g transform="translate(117 135)"><use fill="url(#a)" xlink:href="#b"/><path d="m-118.124461 76.2525404c11.352294 5.5766112 81.276146 122.6275196 174.6509437 89.4566666 93.3747973-33.170854 78.8503283-247.1450152 273.3049483-149.2537317 194.454621 97.8912837-175.656888 354.2582497-175.656888 354.2582497l-328.872904-124.777073s45.221605-175.2607229 56.5739-169.6841116z" fill="url(#c)" mask="url(#e)"/><path d="m122.811536 155.899494-17.390111-30.188079 17.390111-30.1880781h34.780223l17.390112 30.1880781-17.390112 30.188079z" fill="url(#d)"/></g></g></svg>